<?xml version="1.0" encoding="utf-8"?>
<!-- Generator: Adobe Illustrator 27.8.0, SVG Export Plug-In . SVG Version: 6.00 Build 0)  -->
<svg version="1.1" id="Layer_1" xmlns="http://www.w3.org/2000/svg" xmlns:xlink="http://www.w3.org/1999/xlink" x="0px" y="0px"
	 viewBox="0 0 152.3 41.3" style="enable-background:new 0 0 152.3 41.3;" xml:space="preserve">
<style type="text/css">
	.st0{fill:#57221E;}
</style>
<g>
	<polygon class="st0" points="63.3,22.8 63.3,9.3 59.3,9.3 57.4,18.8 57.3,18.8 55.4,9.3 51.4,9.3 51.4,22.8 53.8,22.8 53.8,12 
		53.9,12 56.3,22.8 58.4,22.8 60.8,12 60.8,12 60.8,22.8 	"/>
	<path class="st0" d="M71,18.7c0,1.3-0.3,2.3-1.6,2.3c-1.3,0-1.6-1-1.6-2.3V9.3h-2.7v9.4c0,3.6,2.1,4.3,4.3,4.3
		c2.2,0,4.3-0.9,4.3-4.3V9.3H71V18.7z"/>
	<path class="st0" d="M81.3,15.4l-2.1-0.9c-1.2-0.5-1.4-1-1.4-1.8c0-0.8,0.3-1.6,1.5-1.6c1,0,1.5,0.7,1.5,2h2.6v-0.4
		c0-2.6-1.8-3.6-4.2-3.6c-2.6,0-4.2,1.3-4.2,4c0,2.2,1.1,3.2,3.5,4.1c1.8,0.6,2.4,1.1,2.4,2.3c0,1.1-0.8,1.7-1.6,1.7
		c-1.4,0-1.8-0.8-1.8-2.1v-0.4h-2.7v0.5c0,2.5,1.2,3.9,4.3,3.9c2.9,0,4.7-1.3,4.7-4.1C83.9,17.3,83.3,16.2,81.3,15.4z"/>
	<polygon class="st0" points="91.4,5.8 88.8,5.8 87.8,8.5 89.6,8.5 	"/>
	<polygon class="st0" points="92.9,20.6 87.9,20.6 87.9,16.9 92.5,16.9 92.5,14.7 87.9,14.7 87.9,11.5 92.7,11.5 92.7,9.3 85.2,9.3 
		85.2,22.8 92.9,22.8 	"/>
	<polygon class="st0" points="102,20.6 97,20.6 97,16.9 101.5,16.9 101.5,14.7 97,14.7 97,11.5 101.8,11.5 101.8,9.3 94.3,9.3 
		94.3,22.8 102,22.8 	"/>
	<path class="st0" d="M116.9,15.9c0-4-0.7-6.5-4.5-6.5H108v13.5h4.3C115.9,22.8,116.9,20.6,116.9,15.9z M110.7,20.8v-9.5h1.2
		c2.1,0,2.3,1.6,2.3,4.6c0,3.7-0.4,4.9-2.3,4.9H110.7z"/>
	<path class="st0" d="M121.5,11.8V9.3H119v2.9h1v0.3c0,0.7-0.3,1.4-1,1.5v1.3C121,15.2,121.5,13.8,121.5,11.8z"/>
	<path class="st0" d="M126.1,19.9h3.6l0.6,2.8h2.8l-3.6-13.5h-3.4l-3.6,13.5h2.8L126.1,19.9z M127.9,11.7L127.9,11.7l1.3,6.1h-2.6
		L127.9,11.7z"/>
	<path class="st0" d="M136.8,17.1h1.5c1.1,0,1.6,0.6,1.6,1.7l0.1,2.6c0,0.5,0.1,1,0.3,1.4h2.9v-0.1c-0.5-0.3-0.6-1-0.6-2.4
		c0-2.9-0.3-3.9-2.2-4.1v0c1.5-0.3,2.2-1.5,2.2-3.3c0-2.3-1.4-3.5-3.6-3.5h-5v13.5h2.7V17.1z M136.8,11.3h1.3c1.2,0,1.9,0.6,1.9,1.9
		c0,1.5-0.7,2-2,2h-1.1V11.3z"/>
	<polygon class="st0" points="143.6,9.3 143.6,11.5 146.5,11.5 146.5,22.8 149.2,22.8 149.2,11.5 152.2,11.5 152.2,9.3 	"/>
	<path class="st0" d="M55.9,27.1h-4.5v13.5h4.3c3.6,0,4.6-2.2,4.6-6.9C60.3,29.7,59.7,27.1,55.9,27.1z M55.4,38.6h-1.2v-9.5h1.2
		c2.1,0,2.3,1.6,2.3,4.6C57.6,37.4,57.2,38.6,55.4,38.6z"/>
	<polygon class="st0" points="64.9,34.8 69.4,34.8 69.4,32.5 64.9,32.5 64.9,29.4 69.7,29.4 69.7,27.1 62.1,27.1 62.1,40.6 
		69.9,40.6 69.9,38.4 64.9,38.4 	"/>
	<path class="st0" d="M80,36.8c0,1.4-0.2,2.1-1.2,2.1c-1,0-1.2-0.7-1.2-2.1v-0.4h-2.5v0.6c0,2.1,0.7,3.9,3.6,3.9
		c2.8,0,4.1-1.2,4.1-4v-9.7H80V36.8z"/>
	<path class="st0" d="M88.8,26.9c-4.1,0-4.6,2.9-4.6,7c0,4.1,0.5,7,4.6,7c4.1,0,4.6-2.9,4.6-7C93.4,29.8,92.9,26.9,88.8,26.9z
		 M88.8,38.9c-1.6,0-1.9-1.4-1.9-5c0-3.6,0.3-5,1.9-5c1.6,0,1.9,1.4,1.9,5C90.6,37.5,90.4,38.9,88.8,38.9z"/>
	<polygon class="st0" points="97.7,27.1 95,27.1 95,40.6 102.5,40.6 102.5,38.4 97.7,38.4 	"/>
	<rect x="103.8" y="27.1" class="st0" width="2.7" height="13.5"/>
	<polygon class="st0" points="111.3,34.8 115.8,34.8 115.8,32.5 111.3,32.5 111.3,29.4 116.1,29.4 116.1,27.1 108.6,27.1 
		108.6,40.6 116.3,40.6 116.3,38.4 111.3,38.4 	"/>
	<polygon class="st0" points="116.9,29.4 119.9,29.4 119.9,40.6 122.6,40.6 122.6,29.4 125.5,29.4 125.5,27.1 116.9,27.1 	"/>
	<polygon class="st0" points="126,29.4 128.9,29.4 128.9,40.6 131.7,40.6 131.7,29.4 134.6,29.4 134.6,27.1 126,27.1 	"/>
	<polygon class="st0" points="138.5,34.8 143,34.8 143,32.5 138.5,32.5 138.5,29.4 143.3,29.4 143.3,27.1 135.8,27.1 135.8,40.6 
		143.5,40.6 143.5,38.4 138.5,38.4 	"/>
	<path class="st0" d="M32.2,0.1h-23v9h-9v32h10.7V10.8h4.5v30.3H26V10.8h4.5v30.3h10.7v-32h-9V0.1z M39.4,39.3h-7.2V10.8h7.2V39.3z
		 M9.1,39.3H1.9V10.8h7.2V39.3z M24.3,9.1v30.3H17V9.1h-6.2V1.8h19.6v7.2H24.3z"/>
</g>
</svg>
