<?xml version="1.0" encoding="utf-8"?>
<!-- Generator: Adobe Illustrator 27.8.0, SVG Export Plug-In . SVG Version: 6.00 Build 0)  -->
<svg version="1.1" id="Layer_1" xmlns="http://www.w3.org/2000/svg" xmlns:xlink="http://www.w3.org/1999/xlink" x="0px" y="0px"
	 viewBox="0 0 144 49.4" style="enable-background:new 0 0 144 49.4;" xml:space="preserve">
<style type="text/css">
	.st0{fill:#57221E;}
</style>
<g>
	<g>
		<path class="st0" d="M52.5,13.1c-2.6-2.6-6.9-2.6-9.5,0l-2.5,2.5c1.5-2.6,1.2-6-1-8.2c-2.6-2.6-6.9-2.6-9.5,0l-3.4,3.4
			c1.5-2.6,1.2-6-1-8.2c-2.6-2.6-6.9-2.6-9.5,0L0.5,18V37l18.8-18.8V37l18.8-18.8V37l14.4-14.4C55.1,20,55.1,15.7,52.5,13.1"/>
		<polygon class="st0" points="68.3,7.3 71.6,15.7 72.5,15.7 75.8,7.2 75.8,15.6 77.1,15.6 77.1,5.4 75.3,5.4 72.1,13.7 68.9,5.4 
			67,5.4 67,15.6 68.3,15.6 		"/>
		<path class="st0" d="M82,15.8c1,0,1.7-0.4,2.2-1.1v0.9h1.3V8.3h-1.3v4c0,1.5-0.7,2.3-1.9,2.3c-1.1,0-1.7-0.7-1.7-1.8V8.3h-1.3V13
			C79.4,14.7,80.4,15.8,82,15.8"/>
		<path class="st0" d="M90.3,14.8c-1.2,0-1.7-0.5-1.9-1.6l-1.3,0.2c0.1,1.5,1.3,2.4,3.2,2.4c1.8,0,2.9-0.9,2.9-2.3
			c0-1.2-0.8-1.9-2.2-2.1l-1.2-0.2c-0.8-0.1-1.1-0.4-1.1-1c0-0.6,0.5-1,1.5-1c1,0,1.5,0.4,1.7,1.4l1.2-0.2c-0.2-1.4-1.2-2.3-2.9-2.3
			c-1.7,0-2.8,0.9-2.8,2.1c0,1.1,0.8,1.8,2.2,2.1l1.1,0.2c0.8,0.1,1.3,0.5,1.3,1.1C91.8,14.3,91.3,14.8,90.3,14.8"/>
		<polygon class="st0" points="99.8,5 98.5,5 97.3,7.1 98.5,7.1 		"/>
		<path class="st0" d="M97.9,15.8c1.6,0,2.8-0.9,3.1-2.3l-1.2-0.2c-0.2,1-0.8,1.5-1.9,1.5c-1.4,0-2.2-0.8-2.2-2.5h5.4v-0.6
			c0-2.2-1.2-3.5-3.2-3.5c-1.1,0-1.9,0.4-2.6,1.1c-0.6,0.7-1,1.6-1,2.8C94.3,14.4,95.6,15.8,97.9,15.8 M97.8,9.2
			c1.2,0,1.8,0.7,1.9,2.1h-4C95.8,9.9,96.6,9.2,97.8,9.2"/>
		<path class="st0" d="M105.8,8.1c-1.1,0-1.9,0.4-2.6,1.1c-0.6,0.7-1,1.6-1,2.8c0,2.5,1.3,3.8,3.5,3.8c1.6,0,2.8-0.9,3.1-2.3
			l-1.2-0.2c-0.2,1-0.8,1.5-1.9,1.5c-1.4,0-2.2-0.8-2.2-2.5h5.4v-0.6C109,9.5,107.8,8.1,105.8,8.1 M103.6,11.3
			c0.2-1.4,0.9-2.1,2.1-2.1c1.2,0,1.8,0.7,1.9,2.1H103.6z"/>
		<path class="st0" d="M113.4,14.8c-1.2,0-1.7-0.5-1.9-1.6l-1.3,0.2c0.1,1.5,1.3,2.4,3.2,2.4c1.8,0,2.9-0.9,2.9-2.3
			c0-1.2-0.8-1.9-2.2-2.1l-1.2-0.2c-0.8-0.1-1.1-0.4-1.1-1c0-0.6,0.5-1,1.5-1c1,0,1.5,0.4,1.7,1.4l1.2-0.2c-0.2-1.4-1.2-2.3-2.9-2.3
			c-1.7,0-2.7,0.9-2.7,2.1c0,1.1,0.8,1.8,2.1,2.1l1.1,0.2c0.8,0.1,1.3,0.5,1.3,1.1C114.9,14.3,114.4,14.8,113.4,14.8"/>
		<path class="st0" d="M68.4,28.1c0-1.5,0.7-2.3,2-2.3c1.1,0,1.7,0.7,1.7,1.9v4.5h1.3v-4.7c0-1.7-1-2.7-2.7-2.7
			c-1,0-1.8,0.4-2.3,1.1v-0.9H67v7.3h1.3V28.1z"/>
		<path class="st0" d="M80.2,31.3v0.9h1.3v-7.3h-1.3v4c0,1.5-0.7,2.3-1.9,2.3c-1.1,0-1.7-0.7-1.7-1.8v-4.5h-1.3v4.7
			c0,1.7,1,2.7,2.7,2.7C79,32.3,79.7,32,80.2,31.3"/>
		<path class="st0" d="M94.4,32.2v-4.7c0-1.7-1-2.8-2.7-2.8c-1.1,0-1.9,0.5-2.4,1.3c-0.4-0.9-1.2-1.3-2.3-1.3
			c-0.9,0-1.7,0.4-2.2,1.1v-0.9h-1.3v7.3h1.3v-4c0-1.5,0.6-2.3,1.8-2.3c1,0,1.6,0.7,1.6,1.9v4.5h1.3v-4c0-1.5,0.6-2.3,1.8-2.3
			c1,0,1.6,0.7,1.6,1.9v4.5H94.4z"/>
		<path class="st0" d="M102.7,28.2c0-2.2-1.2-3.5-3.2-3.5c-1.1,0-1.9,0.4-2.6,1.1c-0.6,0.7-1,1.6-1,2.8c0,2.5,1.3,3.8,3.5,3.8
			c1.6,0,2.8-0.9,3.1-2.3l-1.2-0.2c-0.2,1-0.8,1.5-1.9,1.5c-1.4,0-2.2-0.8-2.2-2.5h5.4V28.2z M97.4,27.9c0.2-1.4,0.9-2.1,2.1-2.1
			c1.2,0,1.8,0.7,1.9,2.1H97.4z"/>
		<polygon class="st0" points="98.9,23.7 100.2,23.7 101.5,21.6 100.2,21.6 		"/>
		<path class="st0" d="M105.7,26.2v-1.3h-1.3v7.3h1.3v-3.1c0-1.8,0.8-3,2-3h0.6v-1.2h-0.6C106.9,24.9,106.2,25.3,105.7,26.2"/>
		<rect x="109.8" y="21.9" class="st0" width="1.3" height="1.7"/>
		<rect x="109.8" y="24.9" class="st0" width="1.3" height="7.3"/>
		<path class="st0" d="M118.4,25.9c-0.5-0.8-1.4-1.2-2.4-1.2c-1,0-1.8,0.4-2.4,1.1c-0.6,0.7-0.9,1.7-0.9,2.8c0,1.1,0.3,2.1,0.9,2.7
			c0.6,0.7,1.4,1,2.4,1c1,0,1.8-0.4,2.4-1.2v3.8h1.3v-10h-1.3V25.9z M116.2,31.2c-1.3,0-2.1-1.1-2.1-2.7c0-1.7,0.8-2.7,2.1-2.7
			c1.3,0,2.2,1.1,2.2,2.7C118.4,30.2,117.6,31.2,116.2,31.2"/>
		<path class="st0" d="M126.6,28.9c0,1.5-0.7,2.3-1.9,2.3c-1.1,0-1.7-0.7-1.7-1.8v-4.5h-1.3v4.7c0,1.7,1,2.7,2.7,2.7
			c1,0,1.7-0.4,2.2-1.1v0.9h1.3v-7.3h-1.3V28.9z"/>
		<path class="st0" d="M133.1,24.7c-1.1,0-1.9,0.4-2.6,1.1c-0.6,0.7-1,1.6-1,2.8c0,2.5,1.3,3.8,3.5,3.8c1.6,0,2.8-0.9,3.1-2.3
			l-1.2-0.2c-0.2,1-0.8,1.5-1.9,1.5c-1.4,0-2.2-0.8-2.2-2.5h5.4v-0.6C136.3,26,135.1,24.7,133.1,24.7 M131,27.9
			c0.2-1.4,0.9-2.1,2.1-2.1c1.2,0,1.8,0.7,1.9,2.1H131z"/>
		<path class="st0" d="M141.3,27.9l-1.2-0.2c-0.8-0.1-1.1-0.4-1.1-1c0-0.6,0.5-1,1.5-1c1,0,1.5,0.4,1.7,1.4l1.2-0.2
			c-0.2-1.4-1.2-2.3-2.9-2.3c-1.7,0-2.8,0.9-2.8,2.1c0,1.1,0.8,1.8,2.2,2.1l1.1,0.2c0.8,0.1,1.3,0.5,1.3,1.1c0,0.8-0.5,1.2-1.6,1.2
			c-1.2,0-1.7-0.5-1.9-1.6l-1.3,0.2c0.1,1.5,1.3,2.4,3.2,2.4c1.8,0,2.9-0.9,2.9-2.3C143.5,28.9,142.8,28.2,141.3,27.9"/>
		<path class="st0" d="M71.4,39.6c1.7,0,2.7,0.9,3.1,2.7l1.4-0.2c-0.5-2.4-2-3.8-4.6-3.8c-1.4,0-2.6,0.5-3.5,1.4
			c-0.9,1-1.3,2.2-1.3,3.8c0,1.6,0.4,2.9,1.3,3.9c0.9,1,2,1.4,3.5,1.4c2.3,0,4-1.3,4.5-3.6l-1.4-0.2c-0.5,1.8-1.5,2.6-3.1,2.6
			c-2.1,0-3.3-1.5-3.3-4.1C68,41.1,69.3,39.6,71.4,39.6"/>
		<path class="st0" d="M83.1,47.1v-3.3c0-1.5-1.1-2.6-2.8-2.6c-1.7,0-2.8,0.9-3.1,2.3l1.2,0.1c0.2-0.9,0.8-1.4,1.8-1.4
			c1,0,1.6,0.6,1.6,1.3c0,0.3-0.1,0.5-0.5,0.5l-2.1,0.4c-1.4,0.2-2.2,1-2.2,2.3c0,1.2,1,2.1,2.5,2.1c1,0,1.8-0.4,2.3-1.2
			c0.1,0.7,0.6,1,1.4,1H84v-1.1h-0.4C83.3,47.7,83.1,47.5,83.1,47.1 M81.9,45.5c0,1.4-0.9,2.4-2.1,2.4c-0.9,0-1.4-0.4-1.4-1.2
			c0-0.7,0.4-1.1,1.2-1.2l2.3-0.4V45.5z"/>
		<path class="st0" d="M88.9,41.3c-1,0-1.8,0.4-2.3,1.1v-0.9h-1.3v7.3h1.3v-4c0-1.5,0.7-2.3,2-2.3c1.1,0,1.7,0.7,1.7,1.9v4.5h1.3V44
			C91.6,42.3,90.6,41.3,88.9,41.3"/>
		<path class="st0" d="M99.2,47.1v-3.3c0-1.5-1.1-2.6-2.8-2.6c-1.7,0-2.8,0.9-3.1,2.3l1.2,0.1c0.2-0.9,0.8-1.4,1.8-1.4
			c1,0,1.6,0.6,1.6,1.3c0,0.3-0.1,0.5-0.5,0.5l-2.1,0.4c-1.4,0.2-2.2,1-2.2,2.3c0,1.2,1,2.1,2.5,2.1c1,0,1.8-0.4,2.3-1.2
			c0.1,0.7,0.6,1,1.4,1h0.7v-1.1h-0.3C99.4,47.7,99.2,47.5,99.2,47.1 M98,45.5c0,1.4-0.9,2.4-2.1,2.4c-0.9,0-1.4-0.4-1.4-1.2
			c0-0.7,0.4-1.1,1.2-1.2l2.3-0.4V45.5z"/>
		<path class="st0" d="M106.6,42.4c-0.6-0.8-1.4-1.2-2.4-1.2c-1,0-1.8,0.4-2.4,1.1c-0.6,0.7-0.9,1.7-0.9,2.8c0,1.1,0.3,2.1,0.9,2.8
			c0.6,0.7,1.4,1,2.4,1c1,0,1.8-0.4,2.4-1.3v1.1h1.3V38.5h-1.3V42.4z M104.4,47.8c-1.3,0-2.1-1.1-2.1-2.7c0-1.7,0.8-2.7,2.1-2.7
			c1.3,0,2.2,1.1,2.2,2.7C106.6,46.7,105.8,47.8,104.4,47.8"/>
		<path class="st0" d="M115.6,47.1v-3.3c0-1.5-1.1-2.6-2.8-2.6c-1.7,0-2.8,0.9-3.1,2.3l1.2,0.1c0.2-0.9,0.8-1.4,1.8-1.4
			c1,0,1.6,0.6,1.6,1.3c0,0.3-0.1,0.5-0.5,0.5l-2.1,0.4c-1.4,0.2-2.2,1-2.2,2.3c0,1.2,1,2.1,2.5,2.1c1,0,1.8-0.4,2.3-1.2
			c0.1,0.7,0.6,1,1.4,1h0.7v-1.1h-0.4C115.8,47.7,115.6,47.5,115.6,47.1 M114.4,45.5c0,1.4-0.9,2.4-2.1,2.4c-0.9,0-1.4-0.4-1.4-1.2
			c0-0.7,0.4-1.1,1.2-1.2l2.3-0.4V45.5z"/>
	</g>
</g>
</svg>
